HIERARCHY
ROOT root
{
	OFFSET 0.000000 0.000000 0.000000
	CHANNELS 6 Xposition Yposition Zposition Zrotation Yrotation Xrotation
	JOINT lhip
	{
		OFFSET 0.058581 -0.082280 -0.017664
		CHANNELS 3 Zrotation Yrotation Xrotation
		JOINT lknee
		{
			OFFSET 0.043451 -0.386469 0.008037
			CHANNELS 3 Zrotation Yrotation Xrotation
			JOINT lankle
			{
				OFFSET -0.014790 -0.426874 -0.037428
				CHANNELS 3 Zrotation Yrotation Xrotation
				JOINT ltoe
				{
					OFFSET 0.041054 -0.060286 0.122042
					CHANNELS 3 Zrotation Yrotation Xrotation
					End Site
					{
						OFFSET 0.000000 0.000000 0.000000
					}
				}
			}
		}
	}
	JOINT rhip
	{
		OFFSET -0.060310 -0.090513 -0.013543
		CHANNELS 3 Zrotation Yrotation Xrotation
		JOINT rknee
		{
			OFFSET -0.043257 -0.383688 -0.004843
			CHANNELS 3 Zrotation Yrotation Xrotation
			JOINT rankle
			{
				OFFSET 0.019056 -0.420046 -0.034562
				CHANNELS 3 Zrotation Yrotation Xrotation
				JOINT rtoe
				{
					OFFSET -0.034840 -0.062106 0.130323
					CHANNELS 3 Zrotation Yrotation Xrotation
					End Site
					{
						OFFSET 0.000000 0.000000 0.000000
					}
				}
			}
		}
	}
	JOINT lowerback
	{
		OFFSET 0.004439 0.124404 -0.038385
		CHANNELS 3 Zrotation Yrotation Xrotation
		JOINT upperback
		{
			OFFSET 0.004488 0.137956 0.026820
			CHANNELS 3 Zrotation Yrotation Xrotation
			JOINT chest
			{
				OFFSET -0.002265 0.056032 0.002855
				CHANNELS 3 Zrotation Yrotation Xrotation
				JOINT lowerneck
				{
					OFFSET -0.013390 0.211636 -0.033468
					CHANNELS 3 Zrotation Yrotation Xrotation
					JOINT upperneck
					{
						OFFSET 0.010113 0.088937 0.050410
						CHANNELS 3 Zrotation Yrotation Xrotation
						End Site
						{
							OFFSET 0.000000 0.000000 0.000000
						}
					}
				}
				JOINT lclavicle
				{
					OFFSET 0.071702 0.114000 -0.018898
					CHANNELS 3 Zrotation Yrotation Xrotation
					JOINT lshoulder
					{
						OFFSET 0.122921 0.045205 -0.019046
						CHANNELS 3 Zrotation Yrotation Xrotation
						JOINT lelbow
						{
							OFFSET 0.255332 -0.015649 -0.022946
							CHANNELS 3 Zrotation Yrotation Xrotation
							JOINT lwrist
							{
								OFFSET 0.265709 0.012698 -0.007375
								CHANNELS 3 Zrotation Yrotation Xrotation
								End Site
								{
									OFFSET 0.000000 0.000000 0.000000
								}
							}
						}
					}
				}
				JOINT rclavicle
				{
					OFFSET -0.082954 0.112472 -0.023707
					CHANNELS 3 Zrotation Yrotation Xrotation
					JOINT rshoulder
					{
						OFFSET -0.113228 0.046853 -0.008472
						CHANNELS 3 Zrotation Yrotation Xrotation
						JOINT relbow
						{
							OFFSET -0.260127 -0.014369 -0.031269
							CHANNELS 3 Zrotation Yrotation Xrotation
							JOINT rwrist
							{
								OFFSET -0.269108 0.006794 -0.006027
								CHANNELS 3 Zrotation Yrotation Xrotation
								End Site
								{
									OFFSET 0.000000 0.000000 0.000000
								}
							}
						}
					}
				}
			}
		}
	}
}
MOTION
Frames: 5
Frame Time: 0.033333
-2.012998 0.195373 0.794623 53.561444 7.244948 81.388014 30.044118 25.991758 -41.396256 -10.034937 13.051824 66.783383 -2.364969 1.151674 -19.776586 0.000000 -0.000000 0.000000 -26.947863 -9.274430 14.794307 2.315204 7.022331 39.546007 5.607333 -8.045769 -43.723542 0.000000 -0.000000 0.000000 -0.450488 5.421944 16.583608 3.885006 -7.189755 3.154833 1.476480 0.450489 -6.141776 -1.857340 12.495343 2.954946 6.631883 20.963216 5.300162 -22.288511 -17.934470 -2.816861 -21.387839 -7.839307 -1.150656 -3.460629 -35.964074 19.354892 23.603219 -5.076286 22.168921 19.611543 4.162403 7.651110 38.119150 -25.403760 16.843113 142.574801 66.522437 149.306405 -4.128862 9.807460 -55.527310 
-2.011330 0.194227 0.794227 53.527378 7.187666 81.498741 30.236621 25.661860 -41.313494 -9.760050 13.482036 66.887552 -2.115844 1.165708 -19.980798 0.000000 -0.000000 0.000000 -27.061524 -9.383638 14.859489 1.909455 6.833585 39.380730 5.255692 -7.650690 -43.518198 0.000000 -0.000000 0.000000 -0.432231 5.555978 16.288510 3.766927 -7.267480 3.464258 1.568020 0.628662 -6.236063 -2.059619 12.036120 2.920237 6.686945 21.093603 5.373818 -22.633245 -18.635157 -2.302404 -20.715806 -7.477953 -1.844389 -3.977917 -36.078262 17.977308 23.822970 -5.417430 23.843802 19.704552 4.178295 7.499719 38.336435 -25.885907 16.247854 141.807253 66.333506 148.019804 -3.882101 10.062404 -55.041104 
-2.010001 0.193387 0.793737 53.512089 7.144456 81.492660 30.209219 25.540352 -41.273401 -9.659733 13.532523 67.030669 -2.051710 1.386238 -20.164898 0.000000 -0.000000 0.000000 -27.204902 -9.420600 15.028659 1.916099 6.912070 39.253597 5.267548 -7.603653 -43.512095 0.000000 -0.000000 0.000000 -0.446743 5.681077 16.236688 3.770818 -7.315905 3.605653 1.566566 0.608850 -6.265053 -2.021994 11.974701 2.924460 6.711189 21.035626 5.350228 -22.679648 -18.789490 -2.295294 -20.468388 -7.564707 -2.016472 -4.148633 -35.842402 17.831200 23.320320 -5.327598 24.187529 19.845992 4.172824 7.435922 38.399589 -25.956651 16.198102 141.779331 66.375604 147.915445 -3.651443 10.268117 -54.658149 
-2.008730 0.193011 0.793190 53.363151 7.090638 81.552057 30.156380 25.537656 -41.255685 -9.527961 13.572436 67.209547 -1.942211 1.625690 -20.379124 0.000000 -0.000000 0.000000 -27.444103 -9.528318 15.041275 1.934697 6.991662 39.096170 5.284170 -7.401784 -43.495260 0.000000 -0.000000 0.000000 -0.386233 5.793969 16.127286 3.766393 -7.326872 3.697943 1.546891 0.605702 -6.245928 -1.989952 11.975332 2.974936 6.682153 20.960138 5.391848 -22.587310 -18.921231 -2.322873 -20.450477 -7.637298 -2.128341 -4.283185 -35.464349 17.887676 23.031802 -5.319592 24.559892 19.852098 4.171715 7.400552 38.495967 -25.899922 16.067014 141.775880 66.364977 147.885252 -3.534411 10.358668 -54.357454 
-2.008133 0.193188 0.792966 53.204604 7.046895 81.598066 30.173957 25.530880 -41.195516 -9.463383 13.640639 67.283967 -1.908648 1.721975 -20.527971 0.000000 -0.000000 0.000000 -27.584706 -9.509548 14.944172 1.977792 7.025207 39.043793 5.332467 -7.255326 -43.462559 0.000000 -0.000000 0.000000 -0.336591 5.810470 16.049197 3.753723 -7.304725 3.831397 1.532137 0.646145 -6.265884 -1.983189 11.981958 2.966035 6.632545 20.945974 5.353742 -22.568106 -18.952856 -2.331655 -20.473923 -7.667309 -2.166163 -4.259900 -35.374293 17.682827 22.942931 -5.295106 24.659393 19.893903 4.185901 7.406465 38.412717 -25.888437 16.042398 141.847392 66.367747 147.833042 -3.385955 10.447419 -54.334843 
